HIERARCHY
ROOT hip
{
  OFFSET 0 0 0
  CHANNELS 6 Xposition Yposition Zposition Zrotation Yrotation Xrotation
  JOINT abdomen
  {
    OFFSET 0 20.6881 -0.73152
    CHANNELS 3 Zrotation Xrotation Yrotation
    JOINT chest
    {
      OFFSET 0 11.7043 -0.48768
      CHANNELS 3 Zrotation Xrotation Yrotation
      JOINT neck
      {
        OFFSET 0 22.1894 -2.19456
        CHANNELS 3 Zrotation Xrotation Yrotation
        JOINT head
        {
          OFFSET -0.24384 7.07133 1.2192
          CHANNELS 3 Zrotation Xrotation Yrotation
          JOINT leftEye
          {
            OFFSET 4.14528 8.04674 8.04672
            CHANNELS 3 Zrotation Xrotation Yrotation
            End Site
            {
              OFFSET 1 0 0
            }
          }
          JOINT rightEye
          {
            OFFSET -3.6576 8.04674 8.04672
            CHANNELS 3 Zrotation Xrotation Yrotation
            End Site
            {
              OFFSET 1 0 0
            }
          }
        }
      }
      JOINT rCollar
      {
        OFFSET -2.68224 19.2634 -4.8768
        CHANNELS 3 Zrotation Xrotation Yrotation
        JOINT rShldr
        {
          OFFSET -8.77824 -1.95073 1.46304
          CHANNELS 3 Zrotation Xrotation Yrotation
          JOINT rForeArm
          {
            OFFSET -28.1742 -1.7115 0.48768
            CHANNELS 3 Zrotation Xrotation Yrotation
            JOINT rHand
            {
              OFFSET -22.5879 0.773209 7.07136
              CHANNELS 3 Zrotation Xrotation Yrotation
              JOINT rThumb1
              {
                OFFSET -1.2192 -0.487915 3.41376
                CHANNELS 3 Zrotation Xrotation Yrotation
                JOINT rThumb2
                {
                  OFFSET -3.37035 -0.52449 3.41376
                  CHANNELS 3 Zrotation Xrotation Yrotation
                  End Site
                  {
                    OFFSET -1.78271 -1.18214 1.43049
                  }
                }
              }
              JOINT rIndex1
              {
                OFFSET -7.75947 0.938293 5.60832
                CHANNELS 3 Zrotation Xrotation Yrotation
                JOINT rIndex2
                {
                  OFFSET -2.54057 -0.884171 1.56538
                  CHANNELS 3 Zrotation Xrotation Yrotation
                  End Site
                  {
                    OFFSET -1.62519 -0.234802 1.16502
                  }
                }
              }
              JOINT rMid1
              {
                OFFSET -8.24714 1.18213 3.41376
                CHANNELS 3 Zrotation Xrotation Yrotation
                JOINT rMid2
                {
                  OFFSET -3.10165 -0.590103 1.0647
                  CHANNELS 3 Zrotation Xrotation Yrotation
                  End Site
                  {
                    OFFSET -2.48547 -0.328903 0.83742
                  }
                }
              }
              JOINT rRing1
              {
                OFFSET -8.82822 0.546677 1.51678
                CHANNELS 3 Zrotation Xrotation Yrotation
                JOINT rRing2
                {
                  OFFSET -2.60934 -0.819778 -0.0198488
                  CHANNELS 3 Zrotation Xrotation Yrotation
                  End Site
                  {
                    OFFSET -2.33842 -0.294052 0.168128
                  }
                }
              }
              JOINT rPinky1
              {
                OFFSET -8.27202 -0.0477905 -0.4584
                CHANNELS 3 Zrotation Xrotation Yrotation
                JOINT rPinky2
                {
                  OFFSET -1.82734 -0.647385 -0.700984
                  CHANNELS 3 Zrotation Xrotation Yrotation
                  End Site
                  {
                    OFFSET -1.69225 -0.51767 -0.607171
                  }
                }
              }
            }
          }
        }
      }
      JOINT lCollar
      {
        OFFSET 2.68224 19.2634 -4.8768
        CHANNELS 3 Zrotation Xrotation Yrotation
        JOINT lShldr
        {
          OFFSET 8.77824 -1.95073 1.46304
          CHANNELS 3 Zrotation Xrotation Yrotation
          JOINT lForeArm
          {
            OFFSET 28.1742 -1.7115 0.48768
            CHANNELS 3 Zrotation Xrotation Yrotation
            JOINT lHand
            {
              OFFSET 22.5879 0.773209 7.07136
              CHANNELS 3 Zrotation Xrotation Yrotation
              JOINT lThumb1
              {
                OFFSET 1.2192 -0.487915 3.41376
                CHANNELS 3 Zrotation Xrotation Yrotation
                JOINT lThumb2
                {
                  OFFSET 3.37035 -0.52449 3.41376
                  CHANNELS 3 Zrotation Xrotation Yrotation
                  End Site
                  {
                    OFFSET 1.78271 -1.18214 1.43049
                  }
                }
              }
              JOINT lIndex1
              {
                OFFSET 7.75947 0.938293 5.60832
                CHANNELS 3 Zrotation Xrotation Yrotation
                JOINT lIndex2
                {
                  OFFSET 2.54057 -0.884171 1.56538
                  CHANNELS 3 Zrotation Xrotation Yrotation
                  End Site
                  {
                    OFFSET 1.62519 -0.234802 1.16502
                  }
                }
              }
              JOINT lMid1
              {
                OFFSET 8.24714 1.18213 3.41376
                CHANNELS 3 Zrotation Xrotation Yrotation
                JOINT lMid2
                {
                  OFFSET 3.10165 -0.590103 1.0647
                  CHANNELS 3 Zrotation Xrotation Yrotation
                  End Site
                  {
                    OFFSET 2.48547 -0.328903 0.83742
                  }
                }
              }
              JOINT lRing1
              {
                OFFSET 8.82822 0.546677 1.51678
                CHANNELS 3 Zrotation Xrotation Yrotation
                JOINT lRing2
                {
                  OFFSET 2.60934 -0.819778 -0.0198488
                  CHANNELS 3 Zrotation Xrotation Yrotation
                  End Site
                  {
                    OFFSET 2.33842 -0.294052 0.168128
                  }
                }
              }
              JOINT lPinky1
              {
                OFFSET 8.27202 -0.0477905 -0.4584
                CHANNELS 3 Zrotation Xrotation Yrotation
                JOINT lPinky2
                {
                  OFFSET 1.82734 -0.647385 -0.700984
                  CHANNELS 3 Zrotation Xrotation Yrotation
                  End Site
                  {
                    OFFSET 1.69225 -0.51767 -0.607171
                  }
                }
              }
            }
          }
        }
      }
    }
  }
  JOINT rButtock
  {
    OFFSET -8.77824 4.35084 1.2192
    CHANNELS 3 Zrotation Xrotation Yrotation
    JOINT rThigh
    {
      OFFSET 0 -1.70687 -2.19456
      CHANNELS 3 Zrotation Xrotation Yrotation
      JOINT rShin
      {
        OFFSET 0 -36.8199 0.73152
        CHANNELS 3 Zrotation Xrotation Yrotation
        JOINT rFoot
        {
          OFFSET 0.73152 -45.1104 -5.12064
          CHANNELS 3 Zrotation Xrotation Yrotation
          End Site
          {
            OFFSET -1.1221 -3.69964 12.103
          }
        }
      }
    }
  }
  JOINT lButtock
  {
    OFFSET 8.77824 4.35084 1.2192
    CHANNELS 3 Zrotation Xrotation Yrotation
    JOINT lThigh
    {
      OFFSET 0 -1.70687 -2.19456
      CHANNELS 3 Zrotation Xrotation Yrotation
      JOINT lShin
      {
        OFFSET 0 -36.8199 0.73152
        CHANNELS 3 Zrotation Xrotation Yrotation
        JOINT lFoot
        {
          OFFSET -0.73152 -45.1104 -5.12064
          CHANNELS 3 Zrotation Xrotation Yrotation
          End Site
          {
            OFFSET 1.1221 -3.69964 12.103
          }
        }
      }
    }
  }
}
MOTION
Frames:	8
Frame Time:	0.03333
74.9802 68.2246 -0.6387999999999999 0.261583 70.214549 0.843467 -5.067312 9.876129 -180.0 -3.748694 3.236648 -172.699446 0.067765 39.539932 -174.250059 14.930843 53.586533 112.67061 0.000435 0.0 0.000348 0.000435 0.0 0.000348 1.990063 -14.052837 -2.882072 -176.600787 -17.859554 120.624408 -67.885058 -43.445536 -132.478094 162.061905 -55.314056 137.251603 1.589958 -1.575983 -0.222439 -42.278402 27.940637 37.308302 88.792113 -75.499235 40.050424 -152.848048 -8.87418 115.75304 -151.476701 17.841679 137.538643 11.613903 -24.885352 -1.165174 -0.001431 -0.018561 -0.005312 -156.108569 -13.745211 173.482703 -0.16837 -0.43667 -0.154799 -77.757101 -54.753484 -77.407036 85.53722 68.182657 -88.688995 109.838171 6.817193 -119.155064 1.8098 -8.603839 138.695471 161.539026 11.691623 -139.143812 -6.464724 -6.452232 0.634985 114.794298 2.535799 -103.905162 152.103324 -18.556395 -121.369503 -31.860587 -39.377646 7.867237 166.118716 -24.039826 -145.077592 13.786894 36.409147 -11.14454 67.608495 -72.073735 84.374582 143.169439 62.494166 -162.708946 1.151164 -2.913778 1.067543 147.591497 12.727172 143.950011 179.997302 75.749162 0.00222 167.288127 15.159645 86.411655 56.32667 8.36136 4.606097 4.069746 -17.500434 -84.510907 5.9e-05 0.00048 -7.6e-05 -0.359625 -19.569106 -177.361122 -42.595245 -58.554927 113.242193 -178.503575 -31.698014 -61.111127
73.0481 69.1991 -4.6400999999999994 1.047669 68.885748 1.4912 -4.277294 11.208816 -146.362996 -1.2924 4.792603 150.507209 -6.296591 21.534487 -16.161186 14.874038 -34.458477 -32.859664 0.002384 -0.0 -0.001566 0.002969 0.0 0.000287 -142.973554 39.431315 147.389325 -8.75945 29.433352 -27.968432 -2.523013 -13.692118 -96.132821 -177.039694 -8.71013 143.323846 -78.031001 38.689122 42.412423 57.691554 -42.982758 22.580488 73.421744 -73.570211 26.566961 39.134285 -36.484198 -3.542671 -153.322103 13.629291 138.862669 -163.706232 -6.255409 143.128074 -72.966278 -72.142135 -89.990578 -71.719316 83.309003 89.508315 -12.373803 -24.157786 -11.759272 -136.66511 -15.132801 -134.837234 -2.460099 -18.216268 3.66988 114.110834 -7.31732 158.429621 -8.143179 33.596544 139.339893 159.222473 19.438222 -136.046582 163.620541 -1.298175 -89.453606 -132.307634 -50.769395 -89.089331 -10.283462 -18.18222 4.58443 148.207144 2.685603 -109.410645 -23.903087 -61.333948 -1.400362 179.955298 -48.673944 -141.317619 0.015264 -1.323286 0.414987 156.364065 -42.787223 -177.034742 143.938743 8.264719 140.720465 137.436671 -12.806933 133.83934 179.976517 75.749856 0.016067 169.563733 17.825968 -148.965747 -10.93964 -43.211693 166.821724 117.729209 -37.711235 -18.472029 -0.00791 -0.000215 -0.003955 -2.204867 -17.318354 -7.369566 47.895544 65.092488 70.892995 -168.277933 -44.611022 92.013751
70.5792 70.563 -8.9545 2.440811 67.749995 2.646342 -3.671373 14.056751 -89.884102 5.313776 5.320393 87.110012 8.340856 31.986967 103.487606 -44.831528 21.674981 -148.079715 -0.004057 0.0 -0.000404 0.001637 -0.0 -0.000928 -85.537442 68.183107 88.688981 -40.78571 18.35879 2.497299 -115.574705 -24.485319 -72.249407 8.591931 -59.967641 -2.337399 -94.791688 37.828514 54.283738 -18.35642 -11.438926 31.105022 19.570458 -35.039795 -5.983412 -63.31985 49.995257 51.502555 -39.290716 53.36517 32.879203 -42.04831 58.499342 36.279954 0.006463 1.77051 0.555754 -23.524701 72.9506 36.407667 -14.099329 -26.512442 -13.430686 2.836084 -0.4507 -0.259048 149.636419 23.300784 -154.669906 -102.076259 -44.567689 -131.311165 163.364852 13.639344 -41.083122 168.098375 -0.496966 -142.68638 155.113162 6.918125 -87.738311 134.493422 2.292651 -65.381005 46.208843 39.652863 -36.318131 -50.206763 -51.183277 -10.825738 169.051006 -33.130332 -145.373474 85.975711 63.882939 -77.726675 0.020997 -1.725554 0.542787 -11.663035 -40.156451 4.890252 152.20079 37.33019 147.582186 -10.846768 26.32748 -4.151186 -0.000148 -0.000602 0.00019 -18.668517 -51.413575 110.054237 33.842705 -13.485805 -53.663348 -101.991492 33.867598 41.335801 179.996733 75.750244 0.002235 172.694488 57.781619 8.616678 47.019873 56.115683 45.490662 -139.511847 26.697933 31.86975
68.0082 71.8219 -12.9622 0.510138 65.978861 1.987538 -2.290807 14.230287 -94.711685 5.328689 6.737192 88.359267 -5.12462 41.100608 -161.957784 23.563864 52.857204 97.786423 0.004704 0.0 0.002328 0.00436 -0.0 -0.003348 -143.620132 38.233132 148.080019 81.175711 64.359852 -101.855281 67.549486 -56.109878 -63.767072 -155.708428 33.258735 130.643173 -0.544383 0.536139 0.084473 -15.060231 14.887539 13.342297 -46.209594 39.652408 36.318251 -161.983837 -7.275913 111.997106 -151.476529 17.842008 137.53966 -144.171074 37.070402 131.252254 -74.842947 72.960955 92.828018 5.86976 1.780724 -4.312557 -168.137135 80.280857 -148.041822 -152.753006 25.489152 -145.17982 0.049044 0.292394 -0.064988 -64.908515 12.267506 -8.188455 7.35011 20.739372 -100.457621 7.283472 -23.989622 5.914762 171.603272 -9.28649 -89.948671 -30.188827 -65.007994 -25.020249 -37.216111 -57.917702 0.642624 172.162874 -36.834143 -109.881196 -23.90471 -61.333673 -1.399618 7.534099 26.144108 -6.14424 74.840791 72.959332 -92.828609 -5.8743 1.800968 4.314345 145.174787 12.068202 141.821235 -1.471652 -2.049957 2.646135 179.98677 75.750773 0.010885 169.43108 22.866208 -154.351224 -9.710484 -37.459816 -84.261041 -151.267245 -2.39631 126.889392 -0.000601 -1.3e-05 -0.0 -4.046955 -23.595409 -180.0 -15.289709 -67.75227 51.89522 -119.831316 45.050281 -152.200426
65.6541 71.8711 -16.7131 -2.185148 62.289803 0.946412 -2.584719 17.552247 -14.414699 10.784882 -6.572388 7.418038 7.596782 30.24179 93.511431 -46.857555 13.769357 -142.747608 0.000298 0.0 0.000938 0.000298 0.0 0.000938 -0.164748 0.979203 0.219146 -8.419358 0.135916 60.089457 -75.436885 -30.963851 49.077215 19.205899 -68.505676 5.636705 1.600523 -1.586446 -0.223464 -111.70681 2.637604 101.503865 -164.633291 -40.669096 122.446489 -77.89037 57.084704 62.487451 -171.80705 -40.921731 145.170048 -2.348308 14.677703 3.000024 -70.38142 -72.128942 -87.280735 -79.218952 83.129784 97.067469 -133.876809 -15.638052 -131.332153 -152.77742 29.78318 -145.263426 29.636621 58.071102 -32.036896 -85.953073 -21.633363 -72.128238 -77.450016 31.805789 -52.575249 38.419119 46.577758 -18.696467 78.031193 38.689301 -42.412216 4.081753 -11.911312 -26.381577 59.741004 42.591033 -48.393604 162.990398 -8.217643 -112.847414 158.522126 -0.191925 -142.145743 163.631922 -5.884238 -143.07862 -0.000159 -0.018524 0.005891 -9.143622 13.596428 -1.794227 137.662267 -7.991627 134.925837 147.976419 14.128975 142.332836 -179.997282 75.749188 -0.002804 170.444696 21.885973 -59.861692 -30.996359 9.026628 92.311929 152.30552 -52.972637 38.721771 0.000786 0.00103 -0.00101 -2.32139 -27.467838 -5.022668 -10.339682 66.957399 -84.068604 37.627467 -1.776824 120.567142
63.9496 71.7865 -20.7529 -4.547369 56.479393 -0.856496 -2.23209 19.441896 -5.93519 10.002191 -8.74298 -1.521468 -14.44691 31.695491 -76.158675 50.744016 -0.99345 22.688806 0.00381 0.0 0.003168 -0.002399 0.0 -0.002013 -14.147089 43.061861 15.995586 98.531631 -46.675093 128.960262 -179.345266 -36.866203 38.143991 -174.066421 0.7955 142.253701 4.531934 -4.513667 -0.520615 2.710706 -5.444292 -5.447223 -152.315665 -18.947837 121.430234 -171.302086 -34.935399 117.741572 -0.220027 0.638411 0.122523 -179.654146 -48.712768 141.479615 0.005195 1.770242 0.557534 -154.461997 11.954644 170.228303 -20.140805 -33.377293 -19.313603 -8.200727 -23.980953 -10.36109 155.417271 -2.951441 -161.71852 48.42341 5.632227 12.480383 -21.163558 12.656404 131.136562 165.040489 19.809035 -137.525746 174.192993 -11.857521 -89.870278 149.620537 6.233898 -78.218604 138.494599 4.895566 -114.862932 177.923252 -40.313066 -115.388628 -68.984986 -80.153633 -40.578937 161.432072 1.329403 -142.413652 145.099648 -1.521179 178.65031 150.974454 -31.740216 173.876116 44.840211 -48.031452 43.621515 -4.119896 2.077076 -0.073814 179.994793 75.750526 0.004594 168.56323 18.609386 32.372733 35.457983 35.9553 70.522915 54.036775 52.461465 -149.567997 0.000553 0.000804 0.0 0.905368 -31.809615 0.0 3.600354 64.229249 8.138148 -87.512787 -35.703881 -9.816383
62.356100000000005 71.035 -24.6278 -2.235221 49.107782 1.581554 -3.432633 20.25738 -25.872797 11.560576 -5.543729 17.689049 8.367249 36.298899 124.196735 -44.024429 38.075352 -166.205837 0.000848 -0.0 -0.003849 0.001387 0.0 0.001626 -155.300626 -2.209512 161.559193 -81.937142 -33.567822 -98.146974 -126.364997 -80.856619 -20.714472 -6.482576 -12.037098 -3.945809 -174.193049 -11.857438 89.870768 -178.446551 -14.730431 95.02832 20.933974 -37.332194 -5.933011 -63.166603 50.161471 51.503676 7.904288 -24.807559 -3.014153 -168.835515 -21.6713 144.303533 -72.965068 -72.143949 -89.989718 -67.353794 83.321477 85.105084 12.989442 44.344193 10.760677 -41.914441 -49.979796 -41.476539 9.652121 34.836031 -11.19983 147.2155 -23.3852 -114.418065 -3.492819 -20.558866 125.721956 171.623672 2.199602 -141.862903 67.033045 37.762997 -34.644873 7.964661 -6.86058 -27.173641 149.81617 -14.317424 -120.600738 -31.509893 -39.451529 7.785184 -1.28047 -3.803126 0.681346 -2.659858 1.649237 -0.200724 70.379013 -72.129512 87.280403 -13.977672 28.128525 0.732098 0.530551 -1.364023 0.489964 12.852561 -29.981922 14.022338 179.958357 75.748901 0.034263 170.433837 11.710462 -159.519195 -45.077724 -52.804649 -129.18853 21.734874 56.867007 -113.055098 -0.003566 -6.1e-05 -0.002675 1.51611 -35.331391 4.939139 11.649974 72.205469 69.451352 -12.47762 -25.008576 -58.435582
60.6787 70.1301 -28.3892 -2.277267 41.80193 2.717154 -3.512859 16.281841 -123.046881 1.745414 9.200317 113.848794 2.683261 41.415736 168.143357 -8.653117 58.735371 138.980534 -0.004536 0.0 -0.002931 -0.004029 -0.0 0.002274 1.988462 -14.037363 -2.87867 74.218189 -13.670957 74.855508 -176.183041 -62.401808 32.601134 -175.204756 -2.111117 142.646945 -80.96468 38.735672 44.499605 40.536019 -35.481306 20.555699 -108.42811 34.160659 91.742446 77.959783 -65.718947 31.512185 -36.034617 51.723529 29.83206 -0.645383 11.31672 1.980916 -145.121965 1.975199 -179.749312 11.493193 22.346485 -6.42987 -135.821999 -11.891636 -133.18419 -127.687392 -27.863902 -125.596037 33.837714 -85.665726 55.255014 67.456852 -33.584501 111.173411 -39.653802 14.271439 141.083773 158.374315 34.850908 -131.939944 4.167147 4.057229 -0.78309 -123.686533 -81.793235 -49.952994 -37.215729 -57.917815 0.642378 82.340348 50.641592 -68.72266 161.155434 -8.160023 -143.466229 85.920405 63.862653 -77.756907 145.120095 0.31026 179.225397 6.962658 -61.109116 27.91284 7.145371 -15.707028 6.728684 24.009741 -41.366814 25.021036 -0.000729 -0.001104 -0.000365 -18.252935 -64.574432 159.938969 33.350225 -77.544112 144.853636 -46.936612 -53.438248 46.312497 -0.000136 0.000611 0.000174 3.346216 -39.602926 -0.0 -25.26153 70.876946 86.906627 -178.185224 -11.091179 23.768148
